<svg xmlns="http://www.w3.org/2000/svg" width="63" height="63" viewBox="0 0 63 63" fill="none">
<path d="M31.0148 0C13.9256 0 0 13.9256 0 31.0148C0 48.1039 13.9256 62.0296 31.0148 62.0296C48.1039 62.0296 62.0296 48.1039 62.0296 31.0148C62.0296 13.9256 48.1039 0 31.0148 0ZM43.4207 33.3409H33.3409V43.4207C33.3409 44.6923 32.2864 45.7468 31.0148 45.7468C29.7432 45.7468 28.6887 44.6923 28.6887 43.4207V33.3409H18.6089C17.3373 33.3409 16.2828 32.2864 16.2828 31.0148C16.2828 29.7432 17.3373 28.6887 18.6089 28.6887H28.6887V18.6089C28.6887 17.3373 29.7432 16.2828 31.0148 16.2828C32.2864 16.2828 33.3409 17.3373 33.3409 18.6089V28.6887H43.4207C44.6923 28.6887 45.7468 29.7432 45.7468 31.0148C45.7468 32.2864 44.6923 33.3409 43.4207 33.3409Z" fill="#0AF7A0" fill-opacity="0.7"/>
</svg>
