<svg xmlns="http://www.w3.org/2000/svg" width="60" height="60" viewBox="0 0 60 60" fill="none">
  <path fill-rule="evenodd" clip-rule="evenodd" d="M30 55C43.807 55 55 43.807 55 30C55 16.1929 43.807 5 30 5C16.1929 5 5 16.1929 5 30C5 43.807 16.1929 55 30 55ZM31.875 22.5C31.875 21.4645 31.0355 20.625 30 20.625C28.9645 20.625 28.125 21.4645 28.125 22.5V28.125H22.5C21.4645 28.125 20.625 28.9645 20.625 30C20.625 31.0355 21.4645 31.875 22.5 31.875H28.125V37.5C28.125 38.5355 28.9645 39.375 30 39.375C31.0355 39.375 31.875 38.5355 31.875 37.5V31.875H37.5C38.5355 31.875 39.375 31.0355 39.375 30C39.375 28.9645 38.5355 28.125 37.5 28.125H31.875V22.5Z" fill="#0AF7A0"/>
</svg>
